# xmcd CD database file
#
# Track frame offsets:
#	150
#	15574
#	35992
#	54954
#	77175
#	91065
#	108642
#	128452
#	143872
#	167859
#	183208
#	198097
#	216181
#	235405
#	257935
#	276395
#	298998
#	318291
#
# Disc length: 4572 seconds
#
# Revision: 0
# Processed by: cddbd v1.5.1PL2 Copyright (c) Steve Scherf et al.
# Submitted via: CDex 1.51
#
DISCID=0a11da12
DTITLE=Compilation - TROPICAL MUSIC Vol 2
DYEAR=2006
DGENRE=Merengue
TTITLE0=Bandida
TTITLE1=Mi primera vez
TTITLE2=La camisa negra
TTITLE3=Nau nau
TTITLE4=Rumba riu
TTITLE5=I want to go to riu
TTITLE6=La avispa
TTITLE7=Princesa
TTITLE8=Estoy enamorado
TTITLE9=Cha cha slide
TTITLE10=La colita
TTITLE11=Si me vuelvo a enamorar
TTITLE12=El perro ajeno
TTITLE13=Luto en mi corazon
TTITLE14=Todas tus cosas
TTITLE15=Tu amor me hace bien
TTITLE16=El alcohol
TTITLE17=Piel sin alma
EXTD=YEAR: 2006
EXTT0=
EXTT1=
EXTT2=
EXTT3=
EXTT4=
EXTT5=
EXTT6=
EXTT7=
EXTT8=
EXTT9=
EXTT10=
EXTT11=
EXTT12=
EXTT13=
EXTT14=
EXTT15=
EXTT16=
EXTT17=
PLAYORDER=
